<?xml version="1.0" encoding="UTF-8" standalone="no"?>
<!-- Created with Inkscape (http://www.inkscape.org/) -->

<svg
   xmlns:dc="http://purl.org/dc/elements/1.1/"
   xmlns:cc="http://creativecommons.org/ns#"
   xmlns:rdf="http://www.w3.org/1999/02/22-rdf-syntax-ns#"
   xmlns:svg="http://www.w3.org/2000/svg"
   xmlns="http://www.w3.org/2000/svg"
   xmlns:sodipodi="http://sodipodi.sourceforge.net/DTD/sodipodi-0.dtd"
   xmlns:inkscape="http://www.inkscape.org/namespaces/inkscape"
   id="svg4190"
   version="1.1"
   inkscape:version="0.91 r13725"
   width="180"
   height="180"
   viewBox="0 0 180 180"
   sodipodi:docname="kotetsu.svg">
  <metadata
     id="metadata4196">
    <rdf:RDF>
      <cc:Work
         rdf:about="">
        <dc:format>image/svg+xml</dc:format>
        <dc:type
           rdf:resource="http://purl.org/dc/dcmitype/StillImage" />
        <dc:title></dc:title>
      </cc:Work>
    </rdf:RDF>
  </metadata>
  <defs
     id="defs4194" />
  <sodipodi:namedview
     pagecolor="#ffffff"
     bordercolor="#666666"
     borderopacity="1"
     objecttolerance="10"
     gridtolerance="10"
     guidetolerance="10"
     inkscape:pageopacity="0"
     inkscape:pageshadow="2"
     inkscape:window-width="1920"
     inkscape:window-height="993"
     id="namedview4192"
     showgrid="false"
     inkscape:zoom="3.3312586"
     inkscape:cx="54.431453"
     inkscape:cy="101.05445"
     inkscape:window-x="0"
     inkscape:window-y="24"
     inkscape:window-maximized="1"
     inkscape:current-layer="svg4190" />
  <rect
     style="fill:#c7e9ff;fill-opacity:1;stroke:none;stroke-width:3.9000001;stroke-linecap:round;stroke-linejoin:round;stroke-miterlimit:4;stroke-dasharray:none;stroke-opacity:1"
     id="rect5853"
     width="181.31285"
     height="180.41229"
     x="-1.5009271"
     y="-0.7124781" />
  <path
     style="fill:#ffffff;fill-opacity:1;stroke:#000000;stroke-width:2;stroke-miterlimit:4;stroke-dasharray:none;stroke-opacity:1"
     d="m 25.698745,164.81418 c 0.0189,-12.66327 0.30958,-15.38409 2.05499,-19.23202 3.78394,-8.3421 8.03446,-11.09068 20.17305,-13.04477 4.2625,-0.68618 7.75,-1.56612 7.75,-1.95542 -1.80351,-13.49582 24.80315,6.56972 57.487965,-8.28901 10.40532,-4.73033 1.70043,1.58952 4.69639,6.27378 1.35113,2.11254 12.01691,3.41415 15.81564,4.05213 17.84456,3.02069 22,9.36798 22,33.60424 0,12.51217 -0.11989,13.34107 -1.92961,13.34107 -100.485775,0.16088 -124.202805,-1.19467 -126.069965,0 -1.9106,0 -1.99902,-0.65935 -1.97804,-14.75 z"
     id="path4238-9"
     inkscape:connector-curvature="0"
     sodipodi:nodetypes="csscsscscccc" />
  <path
     style="fill:#555555;fill-opacity:1;stroke:none;stroke-opacity:1"
     d="m 24.635555,165.73914 c 0.0189,-12.66327 0.30958,-15.38409 2.05499,-19.23202 3.78394,-8.3421 8.03446,-11.09068 20.17305,-13.04477 4.2625,-0.68618 7.75,-1.56612 7.75,-1.95542 -1.80351,-13.49582 12.62832,-13.4837 30.47115,-9.78994 16.240525,3.36205 35.306935,9.77422 47.528845,11.82684 17.84456,3.02069 22,9.36798 22,33.60424 0,12.51217 -0.11989,13.34107 -1.92961,13.34107 -1.80778,0 -1.94983,-0.9628 -2.25,-15.25 -0.45307,-21.56526 -2.69152,-25.25416 -16.82039,-27.71955 -3.575,-0.62381 -7.32886,-1.37931 -8.34192,-1.67889 -1.36181,-0.40271 -1.7528,-0.0888 -1.5,1.20418 0.24582,1.25735 2.30924,2.21711 7.34192,3.41495 14.68877,3.49613 15.48573,4.84782 15.49442,26.27931 l 0.006,13.75 -14.5,0 c -7.975,0 -14.5,-0.14872 -14.5,-0.33048 0,-0.26971 6.68886,-5.33774 10.2582,-7.77245 1.09026,-0.74369 -8.07634,-38.89707 -9.34528,-38.89707 -0.5021,0 -0.91156,0.1125 -0.90989,0.25 0.0282,2.3295 4.5743,22.28098 6.43624,28.24673 1.95513,6.26432 2.23206,8.25099 1.27828,9.17036 -0.66965,0.64549 -3.4593,3.00946 -6.19922,5.25326 -4.22496,3.45996 -5.68056,4.07965 -9.58281,4.07965 l -4.60115,0 1.41101,-9.6442 1.41102,-9.6442 -6.27222,-6.32846 c -3.449705,-3.48065 -5.948755,-6.65189 -5.553445,-7.0472 0.39531,-0.39532 3.17149,1.70351 6.169265,4.66406 2.9978,2.96055 5.6395,5.18418 5.87046,4.94141 0.50333,-0.52908 2.62955,-14.03328 2.62955,-16.70101 0,-1.6973 -0.64462,-1.56383 -6.75,1.39762 -3.71251,1.80077 -7.200005,3.30157 -7.750005,3.33512 -0.55,0.0335 -2.08695,2.571 -3.41544,5.6388 -1.32849,3.06779 -3.0404,5.81762 -3.80424,6.11073 -1.09175,0.41895 -0.94609,1.0042 0.68095,2.7361 2.03259,2.1636 2.03555,2.23413 0.16473,3.9272 -1.59052,1.4394 -1.74184,2.25576 -0.91658,4.94473 1.17105,3.81563 -0.56179,11.6693 -2.57472,11.6693 -1.01442,0 -1.0722,-1.0545 -0.27187,-4.96149 0.78394,-3.8269 0.70687,-5.53976 -0.33702,-7.49028 -1.17492,-2.19537 -1.13293,-2.77239 0.31851,-4.3762 1.56828,-1.73293 1.54766,-1.95981 -0.33269,-3.66151 -1.46417,-1.32506 -1.7202,-2.15675 -0.94971,-3.08513 0.76359,-0.92006 0.40468,-2.55039 -1.2998,-5.90423 -1.96024,-3.85712 -3.58456,-5.31236 -9.69716,-8.68775 l -7.3425,-4.05455 0.72917,8.36057 c 0.40104,4.59831 1.05624,8.94517 1.456,9.65967 0.51448,0.91956 2.10664,-0.17602 5.44967,-3.75 4.51846,-4.8306 6.6427,-6.14367 6.6427,-4.1061 0,0.51865 -2.5445,3.69136 -5.65444,7.05047 l -5.65444,6.10747 0.91492,9.44953 0.91493,9.44953 -4.61052,0 c -4.38173,0 -4.86607,-0.29382 -9.76048,-5.92104 -2.83248,-3.25658 -5.13912,-6.74408 -5.12585,-7.75 0.0133,-1.00593 1.7636,-8.69559 3.88964,-17.08815 2.28919,-9.0366 3.47561,-15.50017 2.90935,-15.85013 -0.52589,-0.32502 -1.10959,-0.43339 -1.29709,-0.24082 -0.55128,0.56618 -9.5262,35.36111 -9.52409,36.92397 10e-4,0.7844 2.28041,2.97912 5.06522,4.87718 2.7848,1.89805 5.28549,3.81055 5.55708,4.25 0.27159,0.43944 -5.51843,0.79899 -12.86671,0.79899 l -13.36052,0 0.16308,-12.81557 c 0.0897,-7.04857 0.70285,-14.45107 1.36256,-16.45002 1.71373,-5.19265 6.87793,-9.32256 13.51444,-10.80774 3.574,-0.79983 5.56292,-1.75576 5.56292,-2.6737 0,-2.55729 -14.04077,0.41806 -18.49063,3.91832 -4.67395,3.67653 -5.50937,7.28495 -5.50937,23.79659 0,14.36545 -0.0887,15.03212 -2,15.03212 -1.9106,0 -1.99902,-0.65935 -1.97804,-14.75 z m 65.94286,-16.18426 c 1.52902,-2.857 1.36119,-3.06574 -2.46482,-3.06574 -1.925,0 -3.5,0.25458 -3.5,0.56574 0,1.58649 2.24778,4.43426 3.5,4.43426 0.7863,0 1.89547,-0.87042 2.46482,-1.93426 z m 4.97828,-6.9709 c 22.970235,-9.09484 21.338565,-21.98604 14.508875,-23.10418 -12.736235,-2.08515 -48.709685,10.9858 -45.334065,14.76191 5.58559,3.31053 21.43264,10.19587 23.54302,10.22913 0.6385,0.0101 3.91548,-0.83902 7.28219,-1.88686 z m -1.57687,19.68874 c -0.26634,-0.43095 0.5548,-0.78969 1.82475,-0.7972 1.26996,-0.008 3.32152,-0.285 4.559015,-0.61664 1.2479,-0.33442 2.25,-0.15243 2.25,0.40862 0,1.20808 -7.937245,2.13221 -8.633765,1.00522 z m -13.86623,-0.51033 c -1.65,-0.23491 -3.45,-0.90199 -4,-1.4824 -0.69655,-0.73507 0.0241,-0.86344 2.375,-0.42306 1.85625,0.34773 3.99375,0.63224 4.75,0.63224 0.75625,0 1.375,0.45 1.375,1 0,0.55 -0.3375,0.93258 -0.75,0.85017 -0.4125,-0.0824 -2.1,-0.34204 -3.75,-0.57695 z m 11.03125,-3.18371 c 0.56719,-0.5786 2.59219,-1.3154 4.5,-1.63733 4.14619,-0.69963 2.11766,0.89004 -2.53125,1.98364 -2.09325,0.49241 -2.6883,0.38774 -1.96875,-0.34631 z"
     id="path4238"
     inkscape:connector-curvature="0"
     sodipodi:nodetypes="csscscssssscsccsssscsssscccsssssscssssssssssssscssssscccsscscscssscsssssssccssssscsccccsssssssscscsccsc" />
  <path
     style="fill:#fff3c5;fill-opacity:1;stroke:none;stroke-width:3.9000001;stroke-miterlimit:4;stroke-dasharray:none;stroke-opacity:1"
     d="m 37.591345,104.23945 -3.79132,0.60625 c -3.46313,0.55378 -4.11343,0.26415 -7.51245,-3.34583 -2.04663,-2.173665 -5.25994,-6.993755 -7.14071,-10.711325 l -3.41957,-6.759229 1.20255,-9.03216 c 0.6614,-4.96768 1.86174,-10.60982 2.66742,-12.53809 1.23544,-2.9568 1.85937,-3.43052 3.98349,-3.02447 2.49947,0.47781 2.51292,0.44261 1.77022,-4.63301 -1.28423,-8.776358 -0.79433,-19.757567 1.14271,-25.61447 3.21639,-9.725141 8.78094,-19.2693301 14.42998,-24.7500001 l 5.4113,-5.24999998 c 12.28365,-11.56394092 21.75842,-9.09891062 39.26365,-9.90617092 22.232905,-0.005 26.464925,-4.693543 42.865875,8.1050489 l 4.85553,6.972912 c 4.47801,6.4307701 11.78211,18.1428801 13.85336,26.8282121 1.37215,5.753781 1.64585,19.17357 0.5141,25.206328 -0.6293,3.35448 -0.53979,3.50079 1.86106,3.04183 2.12835,-0.40686 2.75089,0.0653 3.98703,3.02379 0.80568,1.92827 2.00602,7.57041 2.66743,12.53809 l 1.20255,9.03216 -3.41957,6.759229 c -5.90647,11.674905 -11.62216,16.233655 -16.84735,13.437225 -1.58303,-0.84721 -2.01067,-0.16452 -3.60183,5.74999 -19.29302,27.5937 -31.50366,33.42718 -48.748255,33.60753 -6.89929,0.0722 -13.82879,-3.21367 -19.47549,-6.86682 -8.27496,-5.3535 -16.37369,-12.70643 -27.72171,-32.47702 z"
     id="path4238-1-5"
     inkscape:connector-curvature="0"
     sodipodi:nodetypes="cssscsssssscccsssssscsscssc" />
  <path
     style="fill:#ff9848;fill-opacity:1;stroke:none;stroke-opacity:1"
     d="m 75.861745,121.93929 c -1.93825,-0.77889 -11.19552,-12.55798 -10.61175,-13.50255 0.28047,-0.45381 2.17089,-0.83499 4.20093,-0.84707 2.03004,-0.0121 5.5688,-0.87455 7.86391,-1.9166 3.49284,-1.58585 4.46263,-1.68279 5.95055,-0.59481 1.3236,0.96784 2.22605,1.01978 3.53337,0.20334 1.32639,-0.82833 2.92804,-0.6763 6.54945,0.62172 2.63654,0.94501 6.706175,1.71598 9.043685,1.71326 2.3375,-0.003 4.25,0.25147 4.25,0.56487 0,0.83139 -5.96046,9.55273 -8.324325,12.18018 -1.84284,2.04831 -2.88265,2.24292 -11.59997,2.17105 -5.26663,-0.0434 -10.15176,-0.31044 -10.85585,-0.59339 z"
     id="path4238-1-50"
     inkscape:connector-curvature="0"
     sodipodi:nodetypes="csssssscsssc" />
  <path
     style="fill:#000000;fill-opacity:1;stroke:#000000;stroke-opacity:1"
     d="m 61.401386,56.386078 c -14.10662,-1.69126 -14.41688,-1.91693 -7.47738,-5.43871 2.83262,-1.43756 3.88679,-1.4398 11.59364,-0.0247 7.52644,1.38199 8.6699,1.88202 10.19059,4.45635 1.26462,2.14084 1.37097,2.86237 0.40636,2.75704 -0.7186,-0.0785 -7.33954,-0.86596 -14.71321,-1.75 z"
     id="path4238-1"
     inkscape:connector-curvature="0"
     sodipodi:nodetypes="csssssc" />
  <path
     style="fill:#000000;fill-opacity:1;stroke:#000000;stroke-opacity:1"
     d="m 94.979531,57.193703 c 1.2563,-2.12676 2.86103,-3.327068 4.90483,-3.668738 15.161499,-2.53462 16.233519,-2.56241 20.944609,-0.543 8.28798,3.552638 6.23076,4.682188 -9.65699,5.302318 -7.8375,0.30591 -15.107169,0.89689 -16.154819,1.31328 -1.86686,0.74198 -1.86761,0.69406 -0.0376,-2.40386 z"
     id="path4238-1-0"
     inkscape:connector-curvature="0"
     sodipodi:nodetypes="ssssccs" />
  <path
     style="fill:#000000;fill-opacity:1;stroke:#000000;stroke-opacity:1"
     d="m 76.424733,122.82336 c -1.93825,-0.77889 -11.19552,-12.55796 -10.61175,-13.50253 0.28047,-0.45382 2.17089,-0.83499 4.20093,-0.84707 2.03004,-0.0121 5.5688,-0.87455 7.86391,-1.9166 3.49284,-1.58585 4.46263,-1.68279 5.95055,-0.5948 1.3236,0.96783 2.22605,1.01977 3.53337,0.20334 1.32639,-0.82834 2.92804,-0.67631 6.54945,0.62171 2.63654,0.94501 6.706197,1.71598 9.043697,1.71326 2.3375,-0.003 4.25,0.25146 4.25,0.56487 0,0.83139 -5.96046,9.55272 -8.324337,12.18016 -1.84284,2.04831 -2.88265,2.24292 -11.59997,2.17105 -5.26663,-0.0434 -10.15176,-0.31044 -10.85585,-0.59339 z m 21.40329,-2.57765 c 4.612657,-5.26352 5.020507,-6.23746 1.54691,-3.69398 -2.92277,2.14017 -4.39008,2.43866 -11.99999,2.44115 -7.21231,0.002 -9.31333,-0.37734 -12.49606,-2.2583 l -3.82602,-2.26111 2.1304,2.99186 c 3.15039,4.4243 4.67928,4.96657 14.09732,4.99996 7.66314,0.0272 8.7855,-0.20901 10.54744,-2.21958 z m -0.62314,-3.75 c 1.92387,-1.24329 1.49086,-1.30005 -10.74846,-1.40887 -9.42368,-0.0838 -12.2018,0.45526 -9.00153,1.74659 2.28196,0.92079 18.22443,0.64818 19.74999,-0.33772 z m 0.94178,-4.08092 c 5.706187,-1.22376 7.563807,-2.68263 2.738077,-2.15034 -1.821017,0.20086 -4.889157,-0.49935 -7.179847,-1.63859 -3.46683,-1.72415 -4.28079,-1.80821 -6.10661,-0.63062 -1.81158,1.1684 -2.33402,1.13128 -3.73032,-0.26502 -1.49826,-1.49827 -1.91491,-1.47348 -5.39338,0.3209 l -3.76969,1.9446 10,0.61505 c 9.1008,0.55974 8.80482,0.59347 -3.29158,0.37509 -7.31036,-0.13198 -13.13366,-0.082 -12.94065,0.11096 2.17504,2.17504 21.64533,3.03981 29.674,1.31797 z m -36.7203,-4.08349 c 0.21348,-0.64043 1.48848,-1.85738 2.83334,-2.70434 l 2.44519,-1.53993 -2.42431,2.70434 c -2.61706,2.91936 -3.46685,3.37785 -2.85422,1.53993 z m 46.778527,-1.33558 c -1.29175,-1.37499 -1.93269,-2.48585 -1.42431,-2.46857 0.85505,0.0291 4.97611,4.96857 4.14531,4.96857 -0.20481,0 -1.42925,-1.125 -2.721,-2.5 z"
     id="path4238-1-3-9"
     inkscape:connector-curvature="0"
     sodipodi:nodetypes="csssssscssscsscscssssssssssssscsscssscssscss" />
  <path
     style="fill:#a4a4a4;fill-opacity:1;stroke:none;stroke-opacity:1"
     d="m 32.546604,62.313392 c -1.912139,6.7841 -0.915316,14.58418 -1.877393,12.01175 -1.791051,-4.78894 -5.801883,-7.09032 -7.551602,-18.42028 -1.247133,-8.07555 4.738131,-24.708243 5.564384,-27.147013 3.29467,-9.72516 6.720703,-12.760203 10.111502,-16.683962 L 47.732772,1.7295518 C 60.315497,-9.8343977 66.2002,-8.2184253 84.131637,-9.0256853 c 22.774213,-0.005 24.137573,-1.7218407 43.485043,7.2559939 l 4.54923,9.5200858 c 3.40575,7.1271696 13.34256,12.6240116 15.46424,21.3093416 -1.5785,33.849156 1.11156,56.966439 -11.50852,19.334079 1.34603,-3.5621 1.61878,-11.057959 0.74477,-19.060719 C 135.96393,21.069836 126.7969,3.8569965 120.45825,2.9085765 106.81224,0.90217196 96.322612,7.115447 85.265514,7.7077437 65.656787,8.7581262 48.816375,7.6109082 41.89769,22.009093 c -1.178635,3.26652 -7.840194,7.950473 -7.709661,12.441703 -3.292908,14.894488 -2.162613,9.510608 -1.641425,27.862596 z"
     id="path4238-1-3-5-3"
     inkscape:connector-curvature="0"
     sodipodi:nodetypes="csssscccsccscsccc" />
  <path
     style="fill:#000000;fill-opacity:1;stroke:#000000;stroke-opacity:1"
     d="m 37.628684,106.15623 -3.79132,0.60626 c -3.46313,0.55377 -4.11343,0.26414 -7.51245,-3.34584 -2.04663,-2.17367 -5.25994,-6.993758 -7.1407,-10.711328 l -3.41957,-6.759226 1.20255,-9.03216 c 0.6614,-4.967676 1.86174,-10.609816 2.66742,-12.538086 1.23543,-2.9568 1.85936,-3.43052 3.98348,-3.02447 2.49947,0.47781 2.51292,0.44261 1.77022,-4.63301 -1.28423,-8.77636 -0.79433,-19.75757 1.14271,-25.61447 13.6203,-32.1693462 28.13175,-38.4431962 59.10493,-39.9061661 19.173406,1.3822999 28.638266,1.3657499 37.731366,7.5091399 3.16564,2.13873666 6.6593,2.7856067 9.99005,7.5688267 4.47801,6.4307695 11.78211,18.1428695 13.85336,26.8281995 1.37215,5.75378 1.64585,19.17357 0.5141,25.20633 -0.6293,3.35448 -0.53979,3.50079 1.86106,3.04183 2.12835,-0.40686 2.75089,0.0653 3.98703,3.02379 0.80568,1.92827 2.00602,7.57041 2.66743,12.538086 l 1.20255,9.03216 -3.41957,6.759226 c -5.90647,11.674908 -11.62216,16.233658 -16.84735,13.437228 -1.58303,-0.84721 -2.01067,-0.16452 -3.60183,5.74999 -19.29304,27.59368 -31.50368,33.42716 -48.748266,33.60751 -6.89929,0.0722 -13.82879,-3.21367 -19.47549,-6.86682 -8.27496,-5.3535 -16.37369,-12.70643 -27.72171,-32.477 z m 55.41819,37.04249 c 14.442536,-4.49503 33.211386,-19.54638 36.999556,-29.67114 2.69301,-7.1977 10.49462,-39.31972 9.73439,-40.07995 -0.71183,-0.71183 -4.01037,2.909536 -6.61336,7.260606 -2.27339,3.80013 -4.85987,4.41059 -18.43871,4.35189 -6.8421,-0.0296 -11.73034,-0.597 -15.076106,-1.75 -4.30363,-1.48311 -5.28442,-2.3601 -7.49998,-6.70623 -1.9959,-3.915236 -3.14025,-5.068136 -5.27462,-5.314076 -2.1749,-0.25061 -3.13899,0.35564 -4.77073,3 -1.12475,1.822736 -2.26067,4.326576 -2.52427,5.564076 -0.2636,1.2375 -0.72247,3.41335 -1.01971,4.83523 -0.29725,1.42187 -1.7035,3.66311 -3.125,4.980506 -3.58322,3.32083 -3.53076,10.501838 0.055,7.52594 1.14423,-0.94962 1.81287,-0.79107 3.27416,0.77637 3.05395,3.275778 7.04735,3.721698 10.49597,1.17203 2.05674,-1.52061 3.76619,-2.02452 5.44153,-1.60403 3.33372,0.83671 4.14248,-1.65328 1.9978,-6.15075 -2.08001,-4.361866 -1.34553,-5.629616 0.82726,-1.42789 1.89286,3.66042 2.03284,7.51996 0.32373,8.92615 -2.64414,2.175468 -16.22391,3.897948 -18.14716,2.301778 -0.74213,-0.61592 -1.98467,-0.87605 -2.76119,-0.57807 -2.05049,0.78685 -5.84164,-3.166568 -5.84164,-6.091678 0,-1.37857 1.15552,-3.66201 2.56782,-5.07432 2.07075,-2.070746 5.07888,-7.374726 4.15743,-7.330446 -0.12389,0.006 -2.43427,0.68095 -5.13418,1.5 -5.07561,1.53974 -23.75156,1.93318 -28.59107,0.60232 -1.45627,-0.40048 -3.33498,-2.23645 -4.5,-4.39762 -1.39399,-2.58594 -2.68175,-3.71094 -4.25,-3.71282 -1.2375,-10e-4 -2.25,0.19288 -2.25,0.43192 0,2.60721 3.95122,17.946226 7.5624,29.357984 4.41907,13.96477 4.65519,14.42348 10.29525,19.99997 11.2243,7.57826 30.2565,20.0592 42.08543,17.30225 z m -57.3777,-40.40465 c 0.27645,-0.72041 -0.56327,-5.547498 -1.86604,-10.726868 -2.01991,-8.030506 -2.47335,-8.999916 -3.07969,-6.584096 -0.50126,1.99719 -0.10752,3.990776 1.33466,6.757666 2.60146,4.99102 2.57001,5.88152 -0.20433,5.78418 -1.2375,-0.0434 -1.6875,-0.30592 -1,-0.58334 1.69807,-0.68518 1.57484,-2.82323 -0.25,-4.33772 -1.02693,-0.85227 -1.54295,-3.33508 -1.63618,-7.872446 -0.0749,-3.64515 -0.3312,-5.61505 -0.56955,-4.37755 -0.80041,4.15564 -2.58742,2.47228 -2.00277,-1.8866 0.31901,-2.37841 0.0661,-4.919176 -0.59502,-5.977816 -1.09382,-1.75147 -1.21019,-1.73263 -2.38773,0.3866 -1.16404,2.09493 -1.23908,2.10852 -1.258,0.22782 -0.0276,-2.7402 1.48785,-4.9032 2.8468,-4.06332 0.61664,0.3811 2.03128,2.35125 3.14364,4.37811 2.36455,4.308496 1.69946,1.0914 -1.15044,-5.56479 -1.87802,-4.38627 -4.37031,-5.56911 -5.26761,-2.5 -1.1004,3.76382 -2.62313,13.802536 -2.62313,17.293186 0,4.1544 5.04527,14.729356 8.83574,18.519824 2.62741,2.62742 6.91408,3.25251 7.72965,1.12716 z m 109.598836,-1.12716 c 3.79047,-3.790468 8.83575,-14.365424 8.83575,-18.519824 0,-3.49065 -1.52273,-13.529366 -2.62314,-17.293186 -0.80851,-2.76542 -3.02718,-2.05186 -5.36088,1.72415 -2.86536,4.63624 -10.03667,33.59232 -8.73648,35.27585 1.54832,2.00479 5.25028,1.44749 7.88475,-1.18699 z m -6.16425,-5.234278 c 0,-0.91919 0.7398,-2.48872 1.64399,-3.48785 1.11835,-1.23576 1.68566,-3.818816 1.7743,-8.078736 0.19827,-9.528186 6.52447,-19.822696 8.16492,-13.286616 0.84885,3.38208 -0.27254,4.538496 -1.41258,1.4567 -0.85362,-2.30757 -0.89549,-2.31486 -1.95244,-0.33992 -0.59406,1.11001 -0.82693,3.905836 -0.51748,6.212946 0.59074,4.40434 -1.18738,6.13768 -1.99498,1.94474 -0.23835,-1.2375 -0.49761,0.45 -0.57614,3.75 -0.0977,4.10616 -0.76565,6.944996 -2.11618,8.993926 -1.84117,2.79329 -1.85748,3.03989 -0.24341,3.67972 1.42254,0.5639 1.33012,0.69827 -0.52,0.75607 -1.46384,0.0457 -2.25,-0.51366 -2.25,-1.60098 z M 73.792854,81.083156 c 3.47816,-1.50524 4.3004,-2.40625 4.84499,-5.309146 0.99454,-5.30139 -0.12638,-7.49824 -4.34438,-8.51434 -5.25924,-1.26694 -8.36359,-1.24617 -7.56215,0.0506 0.44958,0.72744 -0.16775,0.87487 -1.87212,0.4471 -2.23599,-0.5612 -2.52555,-0.33751 -2.39916,1.85345 0.15242,2.64217 1.64374,3.54317 1.64374,0.99309 0,-0.825 0.49815,-1.5 1.10699,-1.5 0.60884,0 0.84797,0.675 0.53139,1.5 -0.41586,1.08369 0.10952,1.5 1.89301,1.5 2.79866,0 3.29981,-1.46707 0.82548,-2.41655 -0.90372,-0.34679 -1.35648,-0.91718 -1.00613,-1.26753 0.71667,-0.71666 4.64926,2.53062 4.64926,3.83906 0,0.46476 -3.5376,0.84502 -7.86133,0.84502 l -7.86132,0 0.49914,-2.61113 c 0.45198,-2.36438 0.27351,-2.54182 -1.88867,-1.87762 -1.3133,0.40344 -2.95032,1.18355 -3.63782,1.73358 -0.85774,0.68623 -1.25,0.63249 -1.25,-0.17128 0,-0.64424 1.9125,-2.07329 4.25,-3.17568 l 4.25,-2.00434 -6,0.3624 c -11.40751,0.68902 -14.24659,3.88215 -11.00306,12.375216 1.25787,3.29368 2.32789,4.51711 4.33649,4.9582 1.46661,0.32208 3.11657,0.75321 3.66657,0.95809 2.61587,0.9744 20.35521,-0.909 24.18908,-2.56819 z m 54.511876,1.49806 c 2.08067,-0.79959 5.09681,-8.339836 4.63552,-11.588686 -0.37953,-2.67303 -3.9291,-4.73192 -9.61269,-5.57572 -3.54053,-0.52564 -3.62537,-0.47469 -1.7238,1.03531 2.48781,1.97553 0.86289,2.07418 -2.5,0.15178 -4.18614,-2.39301 -20.058446,-1.23066 -23.749986,1.73924 -1.31511,1.05803 -1.6841,6.46594 -0.62882,9.215946 0.83293,2.17057 5.662546,4.56686 11.281756,5.59762 4.88329,0.89576 19.44768,0.51987 22.29802,-0.57549 z M 107.16694,71.97878 c 1.18395,-0.30677 5.94715,-0.79183 5.74506,-2.20947 -0.26454,-1.85579 -0.88059,-2.13195 -4.30846,-1.93139 -2.88533,0.16882 -4.21864,-0.24817 -3.13658,-0.94696 2.65799,-1.71654 10.32473,-0.90374 14.1766,1.36892 3.16417,1.86691 3.42403,2.28475 1.93808,3.11633 -1.10513,0.61847 -1.94066,0.61092 -2.34696,-0.0212 -0.34701,-0.53985 -1.64342,-1.29752 -2.88092,-1.68372 -1.64269,-0.51263 -2.25001,-0.29888 -2.25001,0.7919 0,0.82173 0.7875,1.69986 1.75001,1.95138 0.9625,0.25153 -0.05,0.45733 -2.25001,0.45733 -2.2,0 -7.43147,-0.6354 -6.43681,-0.89312 z m 1.93681,-1.8435 c 0,-0.53274 0.675,-0.70959 1.5,-0.39301 0.825,0.31658 1.5,0.75246 1.5,0.96862 0,0.21615 -0.675,0.39301 -1.5,0.39301 -0.825,0 -1.5,-0.43588 -1.5,-0.96862 z M 60.103774,71.1039 c 0,-0.55 -0.45,-1 -1,-1 -0.55,0 -1,0.45 -1,1 0,0.55 0.45,1 1,1 0.55,0 1,-0.45 1,-1 z m -2.59107,-7.98438 c 7.0743,0.009 14.58056,0.61673 18.09107,1.46438 7.84689,1.8947 13.8413,1.8771 22.18794,-0.0652 5.146316,-1.19756 10.113136,-1.4666 20.312046,-1.10025 7.425,0.2667 18.13373,5.05277 19.64623,5.44702 0.66017,-6.28132 5.55009,-7.25222 5.81704,-16.19735 C 143.96944,39.18435 138.72829,17.30306 131.3366,9.1518705 110.22004,-14.134436 63.544634,-12.973846 38.793154,15.13526 c -8.1813,8.94049 -11.20564,22.5512 -11.11223,33.29042 0.0149,1.71538 2.3024,5.17031 4.43972,8.54309 2.18946,3.45507 4.22136,6.82392 3.4913,8.14826 0.26915,0.43549 2.58643,0.16066 5.14952,-0.61071 2.90474,-0.8742 9.21474,-1.39662 16.75124,-1.38688 z"
     id="path4238-1-3-7"
     inkscape:connector-curvature="0"
     sodipodi:nodetypes="cssscssssccscssssscsscssccsssssssssssssssssssssscssscssccsssssssssssscsssssssssssssssssssssssssssssssssssssssscssssscsssssssssssssssssssscssssssssssssssscssscsscsscssc" />
  <path
     style="fill:#000000;fill-opacity:1;stroke:#000000;stroke-opacity:1"
     d="m 41.246736,54.699701 c 1.1651,0.22273 -3.48577,5.08638 -5.11568,11.00992 -1.86669,6.7841 -0.89356,14.58418 -1.83277,12.01175 -1.74848,-4.78894 -5.66398,-7.09032 -7.37211,-18.42028 -1.21749,-8.07555 0.0667,-26.40636 0.87331,-28.84513 3.21636,-9.72516 8.78094,-19.269329 14.42997,-24.7499998 l 5.4113,-5.24999495 c 12.28365,-11.56395025 21.75842,-9.09892105 39.26365,-9.90618105 22.232924,-0.005 26.464944,-4.6935392 42.865914,8.105051 l 4.85553,6.972915 c 4.47801,6.4307708 11.78211,18.1428798 13.85336,26.8282098 -1.54098,33.84916 -1.0375,57.8155 -13.35762,20.18314 1.31404,-3.5621 3.70295,-11.90702 2.84971,-19.90978 -0.88102,-8.26326 -9.83016,-25.4760998 -16.01814,-26.4245198 -12.26919,-1.880479 -32.669094,0.39321 -46.821764,3.8761308 -2.7028,0.66515 1.24453,-5.1776198 -1.7662,-3.6115108 -3.75844,1.955041 0,0 -13.06804,4.9623508 -2.5833,0.980949 -4.04587,0.886229 -0.85912,-3.5783608 3.3547,-4.699883 -15.72654,11.5861398 -17.49367,16.6028498 -1.15061,3.26652 -4.33833,8.79953 -4.2109,13.29076 0.18869,6.6507 4.06621,12.44925 3.51327,16.85268 z"
     id="path4238-1-3-5"
     inkscape:connector-curvature="0"
     sodipodi:nodetypes="cssssscccsccssssssssc" />
</svg>
