<?xml version="1.0" encoding="UTF-8" standalone="no"?>
<svg
   xmlns:dc="http://purl.org/dc/elements/1.1/"
   xmlns:cc="http://creativecommons.org/ns#"
   xmlns:rdf="http://www.w3.org/1999/02/22-rdf-syntax-ns#"
   xmlns:svg="http://www.w3.org/2000/svg"
   xmlns="http://www.w3.org/2000/svg"
   xmlns:sodipodi="http://sodipodi.sourceforge.net/DTD/sodipodi-0.dtd"
   xmlns:inkscape="http://www.inkscape.org/namespaces/inkscape"
   version="1.0"
   width="420mm"
   height="594mm"
   viewBox="0 0 1190.5512 1683.7796"
   preserveAspectRatio="xMidYMid meet"
   id="svg30"
   sodipodi:docname="getfem-tutorial-face.svg"
   inkscape:version="0.92.3 (2405546, 2018-03-11)">
  <metadata
     id="metadata36">
    <rdf:RDF>
      <cc:Work
         rdf:about="">
        <dc:format>image/svg+xml</dc:format>
        <dc:type
           rdf:resource="http://purl.org/dc/dcmitype/StillImage" />
        <dc:title></dc:title>
      </cc:Work>
    </rdf:RDF>
  </metadata>
  <defs
     id="defs34" />
  <sodipodi:namedview
     pagecolor="#ffffff"
     bordercolor="#666666"
     borderopacity="1"
     objecttolerance="10"
     gridtolerance="10"
     guidetolerance="10"
     inkscape:pageopacity="0"
     inkscape:pageshadow="2"
     inkscape:window-width="1920"
     inkscape:window-height="1052"
     id="namedview32"
     showgrid="false"
     units="mm"
     inkscape:zoom="0.31189427"
     inkscape:cx="1494.425"
     inkscape:cy="1076.8916"
     inkscape:window-x="0"
     inkscape:window-y="-1"
     inkscape:window-maximized="1"
     inkscape:current-layer="svg30" />
  <g
     transform="matrix(0.09205379,0,0,-0.09205379,0.01372538,1462.5727)"
     id="g28"
     style="fill:#4caf50;stroke:none">
    <path
       d="m 5235,11339 c -49,-5 -167,-16 -261,-24 -1300,-117 -2358,-681 -3023,-1613 -240,-336 -425,-739 -526,-1145 -96,-387 -100,-626 -13,-850 l 30,-77 -23,-38 C 1345,7472 1202,7284 825,6815 249,6098 101,5882 25,5649 c -32,-99 -31,-115 3,-192 46,-100 129,-166 349,-276 68,-34 104,-44 208,-61 133,-21 179,-36 223,-70 73,-58 78,-116 27,-280 -19,-61 -35,-121 -35,-133 0,-36 -44,-120 -104,-199 -65,-87 -86,-132 -86,-188 0,-82 44,-144 172,-241 43,-33 82,-68 88,-79 18,-34 0,-68 -82,-158 -83,-90 -118,-145 -118,-184 0,-31 25,-69 105,-158 152,-170 217,-304 201,-418 -3,-26 -44,-162 -91,-302 -103,-315 -119,-388 -113,-529 6,-123 20,-163 99,-277 133,-193 325,-324 579,-397 l 85,-25 830,-6 830,-7 46,-49 c 134,-141 262,-561 365,-1195 26,-160 29,-173 40,-162 27,26 220,1117 298,1687 78,558 110,915 110,1230 1,252 -7,310 -70,492 -48,141 -185,414 -292,584 -49,78 -171,259 -271,403 -325,466 -405,610 -526,935 -190,512 -308,1040 -346,1538 -13,176 -7,668 11,808 69,562 224,1047 473,1480 537,937 1468,1597 2682,1903 230,58 479,106 684,132 34,5 49,10 40,15 -18,10 -244,36 -429,50 -80,6 -197,15 -262,20 -136,12 -385,11 -513,-1 z"
       id="path2"
       inkscape:connector-curvature="0" />
    <path
       d="m 6970,11290 c -204,-11 -314,-22 -299,-30 8,-4 66,-17 129,-29 284,-55 677,-170 945,-276 1237,-491 2085,-1414 2388,-2600 92,-358 127,-648 127,-1045 0,-657 -126,-1281 -402,-1997 -78,-203 -186,-389 -418,-723 -181,-259 -309,-452 -380,-570 -162,-268 -288,-584 -309,-772 -38,-338 41,-1136 215,-2173 68,-404 187,-1021 199,-1033 5,-6 10,19 36,178 92,585 231,1027 364,1167 l 42,43 464,1 c 255,1 637,4 849,8 l 385,7 95,32 c 227,76 398,198 524,375 80,113 100,167 104,289 5,143 -11,217 -115,528 -46,140 -87,278 -90,306 -7,68 24,170 75,250 22,33 81,108 131,167 52,60 94,118 97,134 9,45 -17,93 -98,185 -136,153 -136,158 -15,250 102,78 142,121 163,175 26,68 15,133 -35,204 -22,32 -59,85 -81,117 -22,31 -45,80 -51,107 -6,28 -27,102 -46,165 -45,146 -43,203 7,255 45,47 112,73 232,91 143,21 138,19 287,98 165,88 242,154 283,243 34,77 35,89 2,188 -78,238 -212,435 -770,1131 -487,607 -651,828 -641,862 3,10 17,47 31,84 68,180 74,398 17,673 -275,1351 -1307,2392 -2751,2774 -516,136 -1098,192 -1690,161 z"
       id="path4"
       inkscape:connector-curvature="0" />
    <path
       d="m 5855,10443 c -772,-69 -1384,-289 -1850,-666 -109,-88 -295,-281 -381,-397 -400,-533 -572,-1232 -525,-2135 51,-980 269,-1573 762,-2065 48,-48 192,-180 321,-292 128,-113 268,-242 310,-287 305,-324 436,-652 472,-1181 l 11,-165 658,-3 657,-2 -2,3597 -3,3598 -195,1 c -107,0 -213,-1 -235,-3 z"
       id="path6"
       inkscape:connector-curvature="0" />
    <path
       d="m 6770,10372 c -199,-102 -235,-157 -234,-362 0,-101 4,-123 27,-181 15,-36 27,-78 27,-93 0,-16 -26,-69 -62,-129 -103,-168 -119,-241 -71,-338 15,-29 51,-78 80,-107 29,-29 53,-57 53,-61 0,-4 -14,-20 -31,-37 -40,-37 -55,-68 -64,-125 -7,-44 -5,-48 29,-82 20,-20 36,-41 36,-47 0,-6 -14,-66 -32,-133 -30,-116 -32,-131 -32,-317 -1,-161 2,-205 18,-255 35,-116 91,-200 162,-241 18,-10 17,-15 -23,-100 -143,-305 -151,-342 -155,-759 -3,-325 -3,-331 20,-379 12,-27 37,-68 55,-90 19,-23 37,-46 41,-53 4,-7 -12,-38 -38,-73 -68,-93 -91,-157 -91,-265 0,-85 2,-93 33,-141 17,-28 32,-59 32,-69 0,-10 -14,-61 -31,-114 -51,-159 -69,-257 -78,-422 -12,-213 -4,-277 49,-388 52,-109 52,-151 -1,-227 -47,-69 -58,-107 -59,-210 0,-74 7,-120 39,-245 21,-85 45,-188 52,-230 12,-74 12,-77 -12,-115 -22,-36 -24,-49 -24,-174 0,-128 1,-138 28,-192 16,-32 48,-75 74,-98 58,-51 145,-94 172,-85 15,4 32,-4 64,-34 68,-62 110,-75 262,-75 154,0 219,16 385,97 83,40 115,62 155,106 28,30 91,96 141,148 90,93 90,93 140,93 27,0 85,-9 129,-19 200,-48 324,-35 502,53 83,42 119,66 143,96 49,62 117,224 131,310 14,91 31,135 58,149 11,7 53,23 93,36 134,45 203,108 315,285 109,173 143,262 143,380 -1,55 -25,192 -51,282 -11,41 -11,55 1,90 9,28 13,78 11,141 l -2,97 125,123 c 104,101 130,133 156,189 81,174 58,356 -70,545 l -50,73 22,18 c 119,95 144,142 135,250 -7,81 -54,225 -99,300 -18,30 -54,77 -80,104 l -48,49 v 120 c 0,113 -2,125 -32,197 -25,61 -45,90 -96,139 -44,44 -62,68 -58,80 34,111 49,219 50,348 0,164 -12,230 -63,340 -42,90 -103,161 -221,260 -96,80 -125,133 -140,250 -5,44 -14,119 -20,168 -15,119 -36,180 -82,232 -44,50 -107,75 -188,75 -63,0 -100,28 -100,75 0,18 7,61 16,95 51,199 -126,461 -359,532 -122,37 -277,15 -392,-54 -27,-17 -65,-33 -85,-35 -32,-5 -42,0 -91,45 -82,75 -184,120 -317,141 -42,7 -76,20 -105,40 -46,33 -100,47 -222,56 l -80,6 z m 328,-8 c 97,-48 161,-152 191,-308 11,-60 25,-103 39,-121 31,-39 28,-78 -8,-119 -41,-46 -84,-59 -166,-50 -54,5 -66,4 -62,-7 6,-19 167,-38 227,-27 24,4 53,16 64,25 66,60 71,196 9,242 -15,12 -32,25 -38,30 -7,5 -16,37 -22,71 -6,34 -23,87 -37,118 -16,35 -22,59 -16,65 13,13 140,-26 215,-66 68,-36 138,-103 166,-158 37,-71 42,-124 25,-243 -20,-146 -20,-199 3,-219 36,-33 44,-8 46,141 2,114 6,145 20,167 15,23 22,26 54,21 45,-7 104,5 110,22 2,8 -12,12 -51,12 -77,0 -111,14 -130,56 -10,19 -17,41 -17,49 0,31 132,100 246,130 164,42 308,-12 420,-159 113,-148 138,-253 95,-395 -12,-39 -25,-72 -29,-75 -4,-2 -58,20 -118,49 -124,61 -222,91 -239,74 -13,-13 20,-39 50,-39 11,0 53,-15 92,-34 l 72,-35 21,-70 c 22,-74 41,-94 75,-80 11,4 26,8 33,8 21,1 40,-58 54,-165 10,-74 17,-99 28,-99 23,0 25,130 4,208 -9,34 -17,73 -18,87 -1,24 1,25 54,23 135,-4 240,-83 275,-205 19,-66 32,-267 21,-312 -3,-14 -19,-32 -37,-41 -29,-15 -69,-85 -69,-121 0,-20 37,-17 89,6 49,23 86,25 118,7 43,-24 203,-187 241,-245 22,-33 50,-93 63,-134 21,-65 24,-91 24,-233 0,-140 -3,-169 -24,-235 -35,-115 -75,-194 -120,-243 -23,-24 -41,-47 -41,-51 0,-3 10,-6 23,-6 14,0 40,18 67,45 26,26 53,45 66,45 14,0 41,-20 73,-56 108,-117 123,-324 35,-465 -26,-42 -72,-81 -88,-76 -6,2 -23,39 -37,83 -49,151 -136,283 -194,298 -48,12 -46,-6 9,-65 102,-110 163,-273 153,-408 -7,-93 -59,-206 -114,-249 -79,-60 -106,-89 -100,-105 4,-10 17,-17 29,-17 43,0 87,39 148,130 50,74 64,105 78,166 15,71 18,77 53,94 20,11 58,44 84,75 26,30 55,55 65,55 65,0 170,-174 195,-322 8,-48 -9,-112 -43,-161 -32,-47 -126,-116 -219,-160 -66,-31 -72,-32 -181,-30 -112,3 -113,3 -122,-23 -6,-14 -10,-36 -10,-49 0,-27 -103,-186 -162,-251 -52,-56 -89,-75 -208,-109 -172,-48 -197,-80 -56,-73 147,8 219,56 364,245 50,65 110,138 135,162 42,41 50,44 119,51 40,5 97,18 127,30 30,12 70,20 90,18 32,-3 41,-10 77,-65 23,-33 51,-90 64,-125 27,-78 37,-205 21,-277 -31,-145 -137,-281 -267,-343 -78,-37 -74,-24 -59,-180 10,-101 -8,-150 -75,-211 -56,-50 -106,-67 -199,-67 -65,0 -84,-12 -49,-31 28,-15 151,-6 233,16 91,26 88,27 112,-45 27,-80 30,-204 7,-294 -19,-74 -68,-179 -125,-264 -113,-172 -281,-262 -488,-262 -168,0 -277,44 -418,170 -50,44 -96,80 -102,80 -22,0 -11,-40 21,-76 17,-20 67,-63 109,-95 43,-33 85,-69 93,-81 24,-34 20,-90 -10,-134 -53,-78 -108,-103 -226,-104 -92,0 -138,-11 -138,-33 0,-23 47,-37 124,-37 201,0 298,67 313,217 3,32 10,61 16,64 5,4 25,3 46,-2 20,-5 78,-12 129,-15 51,-4 94,-10 97,-14 9,-15 -59,-251 -91,-311 -94,-178 -261,-261 -524,-260 -141,0 -239,20 -349,71 -69,33 -161,96 -161,111 0,5 19,18 43,28 40,17 113,86 135,128 6,11 19,53 28,94 9,40 25,92 34,115 l 18,42 84,-5 c 80,-5 85,-4 116,22 45,38 43,58 -5,48 -93,-19 -213,15 -291,82 -53,45 -102,60 -102,31 0,-8 23,-58 51,-112 50,-96 51,-99 47,-174 -2,-63 -8,-84 -31,-118 -28,-43 -149,-132 -178,-132 -19,0 -99,83 -99,103 0,7 7,38 16,68 19,63 22,145 7,160 -17,17 -33,-21 -49,-117 -15,-96 -50,-170 -102,-215 -18,-16 -78,-52 -133,-79 -54,-28 -99,-54 -99,-59 0,-29 98,-18 173,20 22,12 64,43 92,70 29,27 55,49 59,49 3,0 32,-17 64,-38 31,-21 100,-66 152,-100 146,-94 141,-88 106,-115 -16,-12 -79,-67 -138,-122 -60,-55 -134,-117 -164,-137 -83,-56 -227,-100 -348,-106 -175,-8 -282,38 -334,144 -24,49 -28,53 -39,38 -7,-10 -13,-33 -13,-51 0,-44 -16,-42 -77,6 -147,115 -176,215 -133,446 12,66 26,124 31,129 5,5 42,-13 87,-43 93,-60 180,-97 195,-82 16,16 -4,33 -109,92 -121,69 -208,149 -224,208 -16,61 -6,66 76,43 38,-11 93,-25 122,-31 67,-14 242,-14 313,-1 150,28 272,143 318,298 l 17,57 76,-3 c 87,-4 122,9 163,62 46,60 65,127 65,226 0,66 4,92 13,96 7,2 40,-11 72,-31 131,-79 251,-100 468,-85 362,26 472,106 621,451 70,161 91,248 82,336 -13,139 -19,123 53,143 126,35 239,142 263,249 17,77 34,91 111,92 81,1 106,9 130,41 14,19 17,34 12,57 -8,37 -25,39 -86,11 -81,-36 -130,-20 -173,60 -31,57 -71,84 -87,59 -17,-24 -3,-95 30,-158 38,-73 39,-102 6,-168 -48,-95 -123,-154 -250,-193 -97,-31 -103,-38 -83,-97 26,-74 30,-125 18,-194 -39,-225 -174,-473 -295,-544 -103,-61 -291,-105 -444,-105 -197,1 -339,55 -478,184 -79,74 -113,92 -113,60 0,-8 14,-35 31,-60 42,-62 64,-169 50,-247 -21,-122 -63,-155 -202,-164 -106,-7 -129,-21 -129,-78 0,-50 -33,-129 -75,-180 -63,-77 -156,-120 -290,-134 -165,-16 -289,16 -380,100 -62,57 -78,91 -79,165 -1,51 4,68 29,110 41,65 58,67 84,9 21,-47 45,-65 63,-47 12,12 -11,88 -79,256 -118,295 -128,529 -36,811 46,142 97,241 157,303 31,33 53,62 49,65 -3,4 -21,7 -39,7 -26,0 -40,-9 -73,-47 -26,-31 -44,-44 -50,-38 -14,15 -41,114 -41,151 0,82 77,223 130,237 10,2 62,-18 116,-46 55,-28 136,-63 181,-78 45,-16 101,-38 124,-49 31,-16 44,-19 53,-10 17,17 -35,54 -129,91 -276,109 -408,221 -460,389 -23,73 -33,433 -15,581 18,163 105,392 210,555 87,135 92,182 11,109 -21,-19 -43,-35 -48,-35 -20,0 -90,70 -115,116 -45,84 -59,159 -59,324 1,165 1,165 42,298 33,106 37,183 13,271 -15,54 -15,60 1,94 21,44 94,95 196,135 190,75 317,80 497,18 119,-40 186,-53 197,-37 9,16 -39,34 -198,75 -237,62 -322,58 -500,-20 -105,-46 -145,-45 -191,3 -52,52 -96,146 -96,202 0,56 37,137 111,248 68,100 130,159 219,208 75,41 123,96 102,117 -13,13 -26,4 -182,-115 -117,-90 -119,-90 -145,8 -30,115 -13,261 41,352 32,56 96,98 208,139 115,42 173,44 244,8 z"
       id="path8"
       inkscape:connector-curvature="0" />
    <path
       d="m 7700,9474 c 0,-4 25,-37 57,-73 62,-74 79,-107 94,-188 22,-118 -19,-191 -142,-252 -107,-54 -139,-54 -203,-1 -26,22 -52,40 -57,40 -21,0 -6,-40 35,-96 24,-32 51,-83 61,-113 10,-29 27,-63 39,-75 l 21,-21 3,24 c 2,14 -2,51 -8,82 -7,31 -10,61 -6,67 3,5 36,12 73,16 81,8 137,32 189,79 38,34 41,35 137,38 94,4 100,5 123,32 27,31 33,73 10,64 -64,-25 -192,-42 -201,-27 -4,6 -8,54 -9,108 -1,63 -8,110 -19,134 -19,44 -100,134 -139,154 -28,15 -58,19 -58,8 z"
       id="path10"
       inkscape:connector-curvature="0" />
    <path
       d="m 6980,8996 c 0,-7 11,-33 24,-57 14,-24 28,-63 32,-87 l 7,-42 h -67 c -66,0 -106,-11 -106,-30 0,-6 51,-10 123,-10 216,0 337,-47 431,-166 24,-31 74,-114 111,-185 53,-101 84,-147 148,-216 91,-100 115,-146 123,-235 8,-79 -5,-126 -56,-210 -22,-37 -40,-76 -40,-86 0,-11 16,-49 35,-86 38,-74 40,-83 24,-139 -28,-100 -164,-177 -314,-177 -37,0 -47,5 -67,30 -76,101 -112,130 -158,130 -33,0 -24,-19 43,-90 74,-78 90,-119 85,-229 l -3,-74 -65,-14 c -77,-15 -105,-34 -145,-96 -34,-53 -31,-53 -165,-22 -176,40 -300,-17 -317,-144 -8,-61 19,-54 92,23 106,113 168,123 284,48 35,-23 68,-42 73,-42 10,0 38,29 108,110 24,29 59,59 77,66 104,44 254,-25 342,-157 99,-148 106,-332 19,-489 -35,-64 -33,-96 4,-85 13,4 30,14 40,22 20,17 48,137 48,204 0,100 32,121 185,123 97,0 188,-28 274,-85 88,-59 104,-55 140,40 44,116 107,172 217,191 96,17 105,20 98,32 -9,15 -136,4 -196,-17 -65,-23 -140,-92 -167,-154 -11,-27 -25,-53 -31,-56 -5,-3 -35,5 -67,19 -154,64 -275,83 -372,56 -23,-6 -49,-9 -56,-7 -7,3 -15,27 -19,54 -19,147 -153,300 -304,348 l -53,18 7,96 c 4,53 9,100 12,105 2,4 21,6 40,2 50,-8 164,10 223,35 61,26 140,111 157,166 25,83 10,160 -43,223 -38,46 -39,42 15,115 17,22 39,71 51,108 18,58 20,74 10,113 -6,25 -9,49 -7,53 3,4 46,11 96,14 204,15 340,69 340,134 0,20 -13,57 -26,72 -2,2 -27,-18 -56,-44 -82,-75 -145,-100 -248,-100 -76,0 -91,3 -139,30 -30,16 -79,55 -110,86 -53,52 -78,90 -197,299 -89,157 -191,234 -345,263 l -74,13 3,33 c 4,38 -33,107 -79,145 -34,29 -49,33 -49,12 z"
       id="path12"
       inkscape:connector-curvature="0" />
    <path
       d="m 8274,8956 c -3,-14 4,-65 15,-114 30,-127 28,-169 -14,-263 -19,-44 -35,-88 -35,-98 0,-24 34,-53 97,-85 111,-55 251,-220 323,-379 79,-174 107,-368 76,-511 -10,-42 -38,-118 -63,-168 -36,-73 -62,-108 -132,-177 -74,-75 -102,-95 -199,-145 -116,-59 -135,-82 -68,-80 84,3 259,121 330,222 15,22 35,43 44,47 9,3 44,-8 79,-25 52,-26 70,-42 105,-93 51,-77 78,-107 95,-107 39,0 -7,120 -68,174 -40,37 -108,76 -132,76 -34,0 -36,22 -6,75 56,99 62,134 64,334 l 1,184 59,54 c 77,69 124,93 194,100 115,12 116,43 1,43 -80,0 -143,-27 -216,-94 -29,-25 -54,-46 -57,-46 -3,0 -13,24 -23,53 -28,85 -71,166 -118,218 -55,61 -64,94 -37,128 33,42 92,148 102,185 11,39 27,46 111,46 45,0 69,-7 122,-35 83,-44 109,-46 104,-8 -2,21 -12,32 -38,44 -44,21 -179,49 -234,49 -23,0 -47,5 -54,12 -7,7 -12,41 -12,84 0,40 -4,84 -10,99 -22,59 -146,163 -167,141 -4,-3 12,-26 35,-49 77,-79 110,-223 78,-346 -19,-73 -73,-180 -95,-189 -19,-7 -139,121 -172,182 -22,42 -22,47 -9,114 19,102 1,269 -37,345 -17,34 -31,35 -39,3 z"
       id="path14"
       inkscape:connector-curvature="0" />
    <path
       d="m 6980,8417 c 0,-7 17,-23 38,-35 49,-27 162,-154 162,-181 0,-11 -18,-48 -39,-81 -67,-103 -79,-227 -36,-357 14,-42 23,-78 20,-82 -4,-3 -43,-8 -88,-12 -97,-7 -147,-30 -218,-96 -48,-45 -64,-83 -35,-83 8,0 41,23 72,50 32,28 81,62 111,76 56,28 84,29 271,8 63,-8 71,10 12,26 -21,6 -45,17 -53,25 -8,8 -25,55 -37,105 -35,141 -15,284 50,361 24,30 34,34 99,40 81,7 111,26 111,71 0,25 -3,28 -22,23 -75,-24 -156,1 -258,80 -89,68 -160,96 -160,62 z"
       id="path16"
       inkscape:connector-curvature="0" />
    <path
       d="m 7360,6194 c 0,-3 10,-37 21,-76 19,-62 20,-77 10,-123 -8,-34 -22,-62 -40,-79 -28,-27 -31,-27 -107,-21 -91,8 -117,1 -171,-49 -27,-23 -59,-40 -103,-51 -78,-20 -103,-33 -94,-47 13,-20 111,0 206,41 106,47 150,51 211,20 39,-20 52,-21 187,-16 164,6 240,23 319,70 85,50 131,98 131,135 0,42 -14,40 -57,-8 -49,-55 -115,-94 -198,-119 -127,-39 -255,-48 -255,-17 0,7 9,29 20,51 15,30 20,59 20,127 0,48 -5,98 -11,111 -15,32 -89,75 -89,51 z"
       id="path18"
       inkscape:connector-curvature="0" />
    <path
       d="m 8330,6049 c 0,-16 16,-78 36,-137 43,-130 51,-187 34,-248 -38,-134 -215,-183 -376,-104 -34,16 -64,30 -67,30 -4,0 -29,-20 -57,-45 -160,-142 -445,-188 -679,-110 -97,32 -164,71 -233,134 -59,54 -88,64 -88,32 0,-25 69,-86 154,-135 37,-22 72,-48 77,-58 6,-11 11,-49 11,-84 2,-81 -12,-101 -107,-159 -106,-64 -90,-103 31,-76 51,12 89,41 113,88 6,12 11,60 11,107 0,47 4,87 9,90 4,3 43,-1 86,-9 97,-19 281,-19 377,-1 97,19 200,58 267,102 l 54,36 41,-23 c 36,-21 54,-24 146,-24 112,0 175,19 229,68 35,32 61,95 61,149 0,66 -58,325 -83,371 -25,45 -47,49 -47,6 z"
       id="path20"
       inkscape:connector-curvature="0" />
    <path
       d="m 4977,3073 c -4,-3 -7,-107 -7,-230 v -223 h 1365 1365 l -2,228 -3,227 -1356,3 c -745,1 -1359,-1 -1362,-5 z"
       id="path22"
       inkscape:connector-curvature="0" />
    <path
       d="m 5074,2427 c -2,-7 -3,-109 -2,-227 l 3,-215 h 1220 1220 v 225 225 l -1218,3 c -981,2 -1219,0 -1223,-11 z"
       id="path24"
       inkscape:connector-curvature="0" />
    <path
       d="m 5232,1553 3,-228 h 1055 1055 l 3,228 2,227 H 6290 5230 Z"
       id="path26"
       inkscape:connector-curvature="0" />
  </g>
  <text
     xml:space="preserve"
     style="font-style:normal;font-variant:normal;font-weight:normal;font-stretch:normal;font-size:72px;line-height:1.25;font-family:'Migu 1P';-inkscape-font-specification:'Migu 1P';text-align:center;letter-spacing:0px;word-spacing:0px;text-anchor:middle;fill:#008000;fill-opacity:1;stroke:none;stroke-width:0.75"
     x="559.57422"
     y="108.85954"
     id="text32"><tspan
       sodipodi:role="line"
       id="tspan30"
       x="559.57422"
       y="108.85954"
       style="font-style:normal;font-variant:normal;font-weight:normal;font-stretch:normal;font-size:100px;font-family:'Migu 1P';-inkscape-font-specification:'Migu 1P';text-align:center;text-anchor:middle;fill:#008000;stroke-width:0.75">GetFEM++</tspan><tspan
       sodipodi:role="line"
       x="559.57422"
       y="233.85954"
       style="font-style:normal;font-variant:normal;font-weight:normal;font-stretch:normal;font-size:100px;font-family:'Migu 1P';-inkscape-font-specification:'Migu 1P';text-align:center;text-anchor:middle;fill:#008000;stroke-width:0.75"
       id="tspan34">学習</tspan><tspan
       sodipodi:role="line"
       x="559.57422"
       y="331.27954"
       style="font-style:normal;font-variant:normal;font-weight:normal;font-stretch:normal;font-size:50px;font-family:'Migu 1P';-inkscape-font-specification:'Migu 1P';text-align:center;text-anchor:middle;fill:#008000;stroke-width:0.75"
       id="tspan36">リリース5.3</tspan></text>
  <text
     xml:space="preserve"
     style="font-style:normal;font-variant:normal;font-weight:normal;font-stretch:normal;font-size:72px;line-height:1.25;font-family:'Migu 1P';-inkscape-font-specification:'Migu 1P';text-align:end;letter-spacing:0px;word-spacing:0px;text-anchor:end;fill:#008000;fill-opacity:1;stroke:none;stroke-width:0.75"
     x="1171.038"
     y="1565.4009"
     id="text45"><tspan
       sodipodi:role="line"
       id="tspan43"
       x="1171.038"
       y="1565.4009"
       style="font-style:normal;font-variant:normal;font-weight:bold;font-stretch:normal;font-size:40px;line-height:0;font-family:'Migu 1P';-inkscape-font-specification:'Migu 1P Bold';text-align:end;text-anchor:end;fill:#008000;stroke-width:0.75">Yves Renard, Julien Pommier, Konstantinos Poulios 著</tspan><tspan
       sodipodi:role="line"
       x="1171.038"
       y="1655.4009"
       style="font-style:normal;font-variant:normal;font-weight:bold;font-stretch:normal;font-size:40px;line-height:0;font-family:'Migu 1P';-inkscape-font-specification:'Migu 1P Bold';text-align:end;text-anchor:end;fill:#008000;stroke-width:0.75"
       id="tspan47">Tetsuo Koyama 訳</tspan></text>
</svg>
